<svg viewBox="-110 1 511 512" xmlns="http://www.w3.org/2000/svg">
    <path d="M180 512H98a24.86 24.86 0 01-24.83-24.84V302.23H25.34A24.87 24.87 0 01.5 277.39v-79.25a24.86 24.86 0 0124.84-24.83h47.83v-39.69c0-39.34 12.36-72.82 35.73-96.8C132.37 12.73 165.18 0 203.78 0l62.53.1a24.87 24.87 0 0124.8 24.84v73.58a24.86 24.86 0 01-24.84 24.83l-42.1.02c-12.84 0-16.1 2.57-16.8 3.36-1.16 1.3-2.53 5-2.53 15.22v31.35h58.27c4.39 0 8.64 1.09 12.29 3.13a24.92 24.92 0 0112.78 21.72l-.04 79.24a24.86 24.86 0 01-24.83 24.83h-58.47v184.94A24.87 24.87 0 01180 512zm-76.81-30.02h71.63v-193.2a16.6 16.6 0 0116.58-16.57h66.73l.03-68.89H191.4a16.6 16.6 0 01-16.58-16.58v-44.79c0-11.72 1.2-25.06 10.04-35.08 10.7-12.12 27.55-13.52 39.3-13.52l36.93-.01V30.1l-57.34-.1c-62.02 0-100.56 39.7-100.56 103.62v53.11a16.6 16.6 0 01-16.58 16.58H30.5v68.89h56.1a16.6 16.6 0 0116.58 16.58zM266.25 30.12zm0 0"/>
</svg>