<?xml version="1.0" encoding="UTF-8" standalone="no"?>
<svg
   xmlns:dc="http://purl.org/dc/elements/1.1/"
   xmlns:cc="http://creativecommons.org/ns#"
   xmlns:rdf="http://www.w3.org/1999/02/22-rdf-syntax-ns#"
   xmlns:svg="http://www.w3.org/2000/svg"
   xmlns="http://www.w3.org/2000/svg"
   xmlns:sodipodi="http://sodipodi.sourceforge.net/DTD/sodipodi-0.dtd"
   xmlns:inkscape="http://www.inkscape.org/namespaces/inkscape"
   width="42.094101"
   height="50"
   viewBox="0 0 24.185999 51.86"
   version="1.1"
   id="svg6"
   sodipodi:docname="logo.svg"
   inkscape:version="0.92.3 (2405546, 2018-03-11)">
  <metadata
     id="metadata9">
    <rdf:RDF>
      <cc:Work
         rdf:about="">
        <dc:format>image/svg+xml</dc:format>
        <dc:type
           rdf:resource="http://purl.org/dc/dcmitype/StillImage" />
        <dc:title></dc:title>
      </cc:Work>
    </rdf:RDF>
  </metadata>
  <defs
     id="defs7" />
  <sodipodi:namedview
     pagecolor="#ffffff"
     bordercolor="#666666"
     borderopacity="1"
     objecttolerance="10"
     gridtolerance="10"
     guidetolerance="10"
     inkscape:pageopacity="0"
     inkscape:pageshadow="2"
     inkscape:window-width="1366"
     inkscape:window-height="715"
     id="namedview5"
     showgrid="false"
     inkscape:zoom="4.72"
     inkscape:cx="54.941143"
     inkscape:cy="26.271186"
     inkscape:window-x="-8"
     inkscape:window-y="-8"
     inkscape:window-maximized="1"
     inkscape:current-layer="svg6" />
  <g
     id="g3716">
    <path
       style="fill:#ededed"
       inkscape:connector-curvature="0"
       id="path2"
       d="M -9.7370013,25.93 V 0 H 33.922999 V 51.86 H -9.7370013 Z" />
    <path
       style="fill:#010101"
       inkscape:connector-curvature="0"
       id="path4"
       d="M -9.4770013,25.93 V 0 H 33.922999 V 51.86 H -9.4770013 Z M 10.522999,36.82 c 0.52,-1.7 1.47,-4.76 2.12,-6.8 l 1.16,-3.72 1.33,-0.27 c 0.73,-0.15 1.32,-0.2 1.32,-0.1 0,0.77 1.37,7.56 1.57,7.75 0.14,0.14 0.44,0.18 0.68,0.1 0.5,-0.2 5.24,-9.9 5.01,-10.26 -0.22,-0.35 -0.9,-0.3 -3.43,0.3 -1.26,0.3 -2.34,0.5 -2.4,0.45 -0.06,-0.06 -0.4,-1.76 -0.76,-3.77 -0.6,-3.3 -0.88,-4.08 -1.54,-4.1 -0.3,0 -0.79,1.26 -2.05,5.43 a 219.4,219.4 0 0 1 -1.16,3.75 c -0.02,0.03 -0.54,0.17 -1.17,0.31 l -1.14,0.26 0.07,-7 c 0.08,-7.1 0,-7.78 -0.9000003,-7.43 -0.58,0.22 -0.7,1.69 -0.7,8.26 0,3.34 -0.1,6.2 -0.2,6.36 -0.12,0.15 -2.17,0.72 -4.57,1.26 -4.38999993,1 -5.1,1.27 -4.59999993,1.77 0.17,0.18 1.71,-0.07 4.69999993,-0.75 l 4.42,-1.03 -0.04,6.08 c -0.04,6.22 0.03,6.72 0.97,6.36 0.2,-0.07 0.7800001,-1.52 1.3000003,-3.21 z m -0.6600003,-6.45 -0.02,-3.1 0.7300003,-0.17 c 0.4,-0.08 0.88,-0.2 1.07,-0.27 0.23,-0.07 0.3,0.06 0.2,0.36 l -0.94,3.1 -0.9,2.92 c -0.07,0.14 -0.1300003,-1.14 -0.1400003,-2.84 z m 8.6000003,-2.05 a 14.28,14.28 0 0 1 -0.33,-2.83 c 0.21,-0.22 3.64,-0.95 3.78,-0.8 0.07,0.07 -0.57,1.52 -1.42,3.22 l -1.55,3.1 z m -3.69,-5.2 c 0.36,-1.14 0.7,-2.1 0.73,-2.15 0.05,-0.04 0.22,0.77 0.4,1.82 0.17,1.04 0.27,1.92 0.23,1.96 -0.04,0.04 -0.5,0.16 -1.05,0.26 l -0.97,0.18 z" />
  </g>
</svg>
