<svg width="682pt" height="682pt" viewBox="-23 -21 682 682.67" xmlns="http://www.w3.org/2000/svg">]
    <path d="M544.39 93C484.5 33.07 404.89.05 320.05 0 145.25 0 2.98 142.26 2.91 317.11a316.57 316.57 0 0042.33 158.55L.25 640l168.12-44.1a316.8 316.8 0 00151.55 38.6h.13c174.79 0 317.07-142.27 317.14-317.13.03-84.75-32.92-164.42-92.8-224.36zM320.05 580.95h-.1a263.27 263.27 0 01-134.17-36.74l-9.62-5.72-99.77 26.18 26.63-97.27-6.27-9.98a262.94 262.94 0 01-40.3-140.28c.06-145.33 118.31-263.57 263.7-263.57 70.41.03 136.6 27.48 186.36 77.3s77.16 116.05 77.13 186.49c-.06 145.34-118.3 263.6-263.59 263.6zm144.59-197.42c-7.93-3.97-46.89-23.13-54.15-25.78-7.26-2.64-12.55-3.96-17.83 3.97-5.28 7.93-20.46 25.78-25.09 31.07-4.62 5.29-9.24 5.95-17.17 1.98-7.92-3.96-33.45-12.33-63.72-39.33-23.56-21.01-39.46-46.96-44.09-54.9-4.61-7.93-.04-11.8 3.48-16.16 8.58-10.66 17.17-21.82 19.8-27.1 2.65-5.3 1.33-9.93-.66-13.9-1.97-3.96-17.82-42.96-24.42-58.83-6.44-15.45-12.97-13.36-17.83-13.6-4.62-.23-9.9-.28-15.19-.28-5.28 0-13.87 1.98-21.13 9.92-7.27 7.93-27.73 27.1-27.73 66.1s28.4 76.69 32.35 81.98c3.96 5.29 55.88 85.32 135.37 119.64A453.57 453.57 0 00371.8 465c18.99 6.03 36.26 5.18 49.91 3.14 15.23-2.28 46.88-19.17 53.5-37.68 6.6-18.51 6.6-34.37 4.61-37.68-1.98-3.3-7.26-5.29-15.18-9.26zm0 0" fill-rule="evenodd"/>
</svg>