<svg xmlns="http://www.w3.org/2000/svg" width="76" height="50" viewBox="0 0 43.66 51.86"><path d="M0 25.93V0h43.66v51.86H0z" fill="#ededed"/><path d="M.26 25.93V0h43.4v51.86H.26zm20 10.89c.52-1.7 1.47-4.76 2.12-6.8l1.16-3.72 1.33-.27c.73-.15 1.32-.2 1.32-.1 0 .77 1.37 7.56 1.57 7.75.14.14.44.18.68.1.49-.2 5.24-9.9 5.01-10.26-.22-.35-.9-.3-3.43.3-1.26.3-2.34.5-2.4.45-.06-.06-.4-1.76-.76-3.77-.6-3.3-.88-4.08-1.54-4.1-.3 0-.79 1.26-2.05 5.43a219.4 219.4 0 01-1.16 3.75c-.02.03-.54.17-1.17.31l-1.14.26.07-7c.08-7.1 0-7.78-.9-7.43-.58.22-.7 1.69-.71 8.26 0 3.34-.1 6.2-.2 6.36-.11.15-2.16.72-4.56 1.26-4.39 1-5.1 1.27-4.6 1.77.17.18 1.71-.07 4.69-.75l4.43-1.03-.04 6.08c-.04 6.22.03 6.72.97 6.36.2-.07.78-1.52 1.3-3.21zm-.66-6.45l-.02-3.1.73-.17c.4-.08.88-.2 1.07-.27.23-.07.3.06.2.36l-.94 3.1c-.44 1.46-.85 2.77-.91 2.92-.06.14-.12-1.14-.13-2.84zm8.6-2.05a14.28 14.28 0 01-.33-2.83c.21-.22 3.64-.95 3.78-.8.07.07-.57 1.52-1.42 3.22l-1.55 3.1zm-3.69-5.2c.36-1.14.7-2.1.73-2.15.05-.04.22.77.4 1.82.17 1.04.27 1.92.23 1.96-.04.04-.51.16-1.05.26l-.97.18z" fill="#010101"/></svg>